<svg xmlns="http://www.w3.org/2000/svg" width="840" height="320" viewBox="0 0 840 320" role="img" aria-label="Contribution calendar, Oct 5, 2025 – Oct 2, 2026: 47 contributions in 12 months on 9 active days; longest streak 1 days."><title>Contribution calendar, Oct 5, 2025 – Oct 2, 2026: 47 contributions in 12 months on 9 active days; longest streak 1 days.</title><defs><filter id="sh" x="-5%" y="-10%" width="110%" height="130%"><feDropShadow dx="0" dy="4" stdDeviation="7" flood-color="#1D4E7A" flood-opacity=".07"/></filter></defs><style>
text{font-family:-apple-system,BlinkMacSystemFont,'Segoe UI',Inter,'Helvetica Neue',Arial,sans-serif;fill:#17212B}
.e{font-size:11px;font-weight:600;letter-spacing:.12em;fill:#1D6FB2}
.b{fill:#46566A}.m{fill:#7C8B9C}.n{font-variant-numeric:tabular-nums}
.in{animation:in .9s cubic-bezier(.22,.61,.36,1) both}
.grow{transform-box:fill-box;transform-origin:left center;animation:grow 1.2s cubic-bezier(.22,.61,.36,1) both}
.pop{transform-box:fill-box;transform-origin:center;animation:pop .8s cubic-bezier(.22,.61,.36,1) both}
.draw{stroke-dasharray:1 1;animation:draw 1.8s cubic-bezier(.45,0,.25,1) both}
.pulse{transform-box:fill-box;transform-origin:center;animation:pulse 2.8s ease-out infinite}
@keyframes in{from{opacity:0;transform:translateY(6px)}to{opacity:1;transform:none}}
@keyframes grow{from{transform:scaleX(0)}to{transform:none}}
@keyframes pop{from{opacity:0;transform:scale(.3)}to{opacity:1;transform:none}}
@keyframes draw{from{stroke-dashoffset:1}to{stroke-dashoffset:0}}
@keyframes pulse{from{opacity:.55;transform:scale(1)}to{opacity:0;transform:scale(2.8)}}
@media (prefers-reduced-motion:reduce){*{animation:none!important}.pulse{display:none}}
</style><rect x="8" y="8" width="824" height="304" rx="20" fill="#FFFFFF" stroke="#E3EAF2" filter="url(#sh)"/><text x="40.0" y="52.0" font-size="11" class="e">CONTRIBUTIONS · LAST 52 WEEKS</text><text x="800.0" y="52.0" font-size="11.5" class="m" text-anchor="end">Oct 5, 2025 – Oct 2, 2026</text><text x="75.0" y="82.0" font-size="10.5" class="m">Oct</text><text x="117.0" y="82.0" font-size="10.5" class="m">Nov</text><text x="187.0" y="82.0" font-size="10.5" class="m">Dec</text><text x="243.0" y="82.0" font-size="10.5" class="m">Jan</text><text x="313.0" y="82.0" font-size="10.5" class="m">Feb</text><text x="369.0" y="82.0" font-size="10.5" class="m">Mar</text><text x="425.0" y="82.0" font-size="10.5" class="m">Apr</text><text x="481.0" y="82.0" font-size="10.5" class="m">May</text><text x="551.0" y="82.0" font-size="10.5" class="m">Jun</text><text x="607.0" y="82.0" font-size="10.5" class="m">Jul</text><text x="663.0" y="82.0" font-size="10.5" class="m">Aug</text><text x="733.0" y="82.0" font-size="10.5" class="m">Sep</text><text x="65.0" y="115.0" font-size="10" class="m" text-anchor="end">Mon</text><text x="65.0" y="143.0" font-size="10" class="m" text-anchor="end">Wed</text><text x="65.0" y="171.0" font-size="10" class="m" text-anchor="end">Fri</text><g class="in" style="animation-delay:0.15s"><rect x="75" y="92" width="11" height="11" rx="2.5" fill="#EDF1F6"/><rect x="75" y="106" width="11" height="11" rx="2.5" fill="#EDF1F6"/><rect x="75" y="120" width="11" height="11" rx="2.5" fill="#EDF1F6"/><rect x="75" y="134" width="11" height="11" rx="2.5" fill="#EDF1F6"/><rect x="75" y="148" width="11" height="11" rx="2.5" fill="#EDF1F6"/><rect x="75" y="162" width="11" height="11" rx="2.5" fill="#EDF1F6"/><rect x="75" y="176" width="11" height="11" rx="2.5" fill="#EDF1F6"/></g><g class="in" style="animation-delay:0.17s"><rect x="89" y="92" width="11" height="11" rx="2.5" fill="#EDF1F6"/><rect x="89" y="106" width="11" height="11" rx="2.5" fill="#EDF1F6"/><rect x="89" y="120" width="11" height="11" rx="2.5" fill="#EDF1F6"/><rect x="89" y="134" width="11" height="11" rx="2.5" fill="#EDF1F6"/><rect x="89" y="148" width="11" height="11" rx="2.5" fill="#EDF1F6"/><rect x="89" y="162" width="11" height="11" rx="2.5" fill="#EDF1F6"/><rect x="89" y="176" width="11" height="11" rx="2.5" fill="#EDF1F6"/></g><g class="in" style="animation-delay:0.18s"><rect x="103" y="92" width="11" height="11" rx="2.5" fill="#EDF1F6"/><rect x="103" y="106" width="11" height="11" rx="2.5" fill="#EDF1F6"/><rect x="103" y="120" width="11" height="11" rx="2.5" fill="#EDF1F6"/><rect x="103" y="134" width="11" height="11" rx="2.5" fill="#EDF1F6"/><rect x="103" y="148" width="11" height="11" rx="2.5" fill="#EDF1F6"/><rect x="103" y="162" width="11" height="11" rx="2.5" fill="#EDF1F6"/><rect x="103" y="176" width="11" height="11" rx="2.5" fill="#EDF1F6"/></g><g class="in" style="animation-delay:0.20s"><rect x="117" y="92" width="11" height="11" rx="2.5" fill="#EDF1F6"/><rect x="117" y="106" width="11" height="11" rx="2.5" fill="#EDF1F6"/><rect x="117" y="120" width="11" height="11" rx="2.5" fill="#EDF1F6"/><rect x="117" y="134" width="11" height="11" rx="2.5" fill="#EDF1F6"/><rect x="117" y="148" width="11" height="11" rx="2.5" fill="#EDF1F6"/><rect x="117" y="162" width="11" height="11" rx="2.5" fill="#EDF1F6"/><rect x="117" y="176" width="11" height="11" rx="2.5" fill="#EDF1F6"/></g><g class="in" style="animation-delay:0.21s"><rect x="131" y="92" width="11" height="11" rx="2.5" fill="#EDF1F6"/><rect x="131" y="106" width="11" height="11" rx="2.5" fill="#EDF1F6"/><rect x="131" y="120" width="11" height="11" rx="2.5" fill="#EDF1F6"/><rect x="131" y="134" width="11" height="11" rx="2.5" fill="#EDF1F6"/><rect x="131" y="148" width="11" height="11" rx="2.5" fill="#EDF1F6"/><rect x="131" y="162" width="11" height="11" rx="2.5" fill="#EDF1F6"/><rect x="131" y="176" width="11" height="11" rx="2.5" fill="#EDF1F6"/></g><g class="in" style="animation-delay:0.23s"><rect x="145" y="92" width="11" height="11" rx="2.5" fill="#EDF1F6"/><rect x="145" y="106" width="11" height="11" rx="2.5" fill="#EDF1F6"/><rect x="145" y="120" width="11" height="11" rx="2.5" fill="#EDF1F6"/><rect x="145" y="134" width="11" height="11" rx="2.5" fill="#EDF1F6"/><rect x="145" y="148" width="11" height="11" rx="2.5" fill="#EDF1F6"/><rect x="145" y="162" width="11" height="11" rx="2.5" fill="#EDF1F6"/><rect x="145" y="176" width="11" height="11" rx="2.5" fill="#EDF1F6"/></g><g class="in" style="animation-delay:0.25s"><rect x="159" y="92" width="11" height="11" rx="2.5" fill="#EDF1F6"/><rect x="159" y="106" width="11" height="11" rx="2.5" fill="#EDF1F6"/><rect x="159" y="120" width="11" height="11" rx="2.5" fill="#EDF1F6"/><rect x="159" y="134" width="11" height="11" rx="2.5" fill="#EDF1F6"/><rect x="159" y="148" width="11" height="11" rx="2.5" fill="#EDF1F6"/><rect x="159" y="162" width="11" height="11" rx="2.5" fill="#EDF1F6"/><rect x="159" y="176" width="11" height="11" rx="2.5" fill="#EDF1F6"/></g><g class="in" style="animation-delay:0.26s"><rect x="173" y="92" width="11" height="11" rx="2.5" fill="#EDF1F6"/><rect x="173" y="106" width="11" height="11" rx="2.5" fill="#C9E2F6"/><rect x="173" y="120" width="11" height="11" rx="2.5" fill="#EDF1F6"/><rect x="173" y="134" width="11" height="11" rx="2.5" fill="#EDF1F6"/><rect x="173" y="148" width="11" height="11" rx="2.5" fill="#EDF1F6"/><rect x="173" y="162" width="11" height="11" rx="2.5" fill="#EDF1F6"/><rect x="173" y="176" width="11" height="11" rx="2.5" fill="#EDF1F6"/></g><g class="in" style="animation-delay:0.28s"><rect x="187" y="92" width="11" height="11" rx="2.5" fill="#EDF1F6"/><rect x="187" y="106" width="11" height="11" rx="2.5" fill="#EDF1F6"/><rect x="187" y="120" width="11" height="11" rx="2.5" fill="#EDF1F6"/><rect x="187" y="134" width="11" height="11" rx="2.5" fill="#EDF1F6"/><rect x="187" y="148" width="11" height="11" rx="2.5" fill="#EDF1F6"/><rect x="187" y="162" width="11" height="11" rx="2.5" fill="#EDF1F6"/><rect x="187" y="176" width="11" height="11" rx="2.5" fill="#EDF1F6"/></g><g class="in" style="animation-delay:0.29s"><rect x="201" y="92" width="11" height="11" rx="2.5" fill="#EDF1F6"/><rect x="201" y="106" width="11" height="11" rx="2.5" fill="#EDF1F6"/><rect x="201" y="120" width="11" height="11" rx="2.5" fill="#EDF1F6"/><rect x="201" y="134" width="11" height="11" rx="2.5" fill="#EDF1F6"/><rect x="201" y="148" width="11" height="11" rx="2.5" fill="#EDF1F6"/><rect x="201" y="162" width="11" height="11" rx="2.5" fill="#EDF1F6"/><rect x="201" y="176" width="11" height="11" rx="2.5" fill="#EDF1F6"/></g><g class="in" style="animation-delay:0.31s"><rect x="215" y="92" width="11" height="11" rx="2.5" fill="#EDF1F6"/><rect x="215" y="106" width="11" height="11" rx="2.5" fill="#EDF1F6"/><rect x="215" y="120" width="11" height="11" rx="2.5" fill="#EDF1F6"/><rect x="215" y="134" width="11" height="11" rx="2.5" fill="#EDF1F6"/><rect x="215" y="148" width="11" height="11" rx="2.5" fill="#EDF1F6"/><rect x="215" y="162" width="11" height="11" rx="2.5" fill="#EDF1F6"/><rect x="215" y="176" width="11" height="11" rx="2.5" fill="#EDF1F6"/></g><g class="in" style="animation-delay:0.33s"><rect x="229" y="92" width="11" height="11" rx="2.5" fill="#EDF1F6"/><rect x="229" y="106" width="11" height="11" rx="2.5" fill="#EDF1F6"/><rect x="229" y="120" width="11" height="11" rx="2.5" fill="#EDF1F6"/><rect x="229" y="134" width="11" height="11" rx="2.5" fill="#EDF1F6"/><rect x="229" y="148" width="11" height="11" rx="2.5" fill="#EDF1F6"/><rect x="229" y="162" width="11" height="11" rx="2.5" fill="#C9E2F6"/><rect x="229" y="176" width="11" height="11" rx="2.5" fill="#EDF1F6"/></g><g class="in" style="animation-delay:0.34s"><rect x="243" y="92" width="11" height="11" rx="2.5" fill="#EDF1F6"/><rect x="243" y="106" width="11" height="11" rx="2.5" fill="#EDF1F6"/><rect x="243" y="120" width="11" height="11" rx="2.5" fill="#EDF1F6"/><rect x="243" y="134" width="11" height="11" rx="2.5" fill="#EDF1F6"/><rect x="243" y="148" width="11" height="11" rx="2.5" fill="#EDF1F6"/><rect x="243" y="162" width="11" height="11" rx="2.5" fill="#EDF1F6"/><rect x="243" y="176" width="11" height="11" rx="2.5" fill="#EDF1F6"/></g><g class="in" style="animation-delay:0.36s"><rect x="257" y="92" width="11" height="11" rx="2.5" fill="#EDF1F6"/><rect x="257" y="106" width="11" height="11" rx="2.5" fill="#EDF1F6"/><rect x="257" y="120" width="11" height="11" rx="2.5" fill="#EDF1F6"/><rect x="257" y="134" width="11" height="11" rx="2.5" fill="#EDF1F6"/><rect x="257" y="148" width="11" height="11" rx="2.5" fill="#EDF1F6"/><rect x="257" y="162" width="11" height="11" rx="2.5" fill="#EDF1F6"/><rect x="257" y="176" width="11" height="11" rx="2.5" fill="#EDF1F6"/></g><g class="in" style="animation-delay:0.37s"><rect x="271" y="92" width="11" height="11" rx="2.5" fill="#EDF1F6"/><rect x="271" y="106" width="11" height="11" rx="2.5" fill="#EDF1F6"/><rect x="271" y="120" width="11" height="11" rx="2.5" fill="#EDF1F6"/><rect x="271" y="134" width="11" height="11" rx="2.5" fill="#EDF1F6"/><rect x="271" y="148" width="11" height="11" rx="2.5" fill="#EDF1F6"/><rect x="271" y="162" width="11" height="11" rx="2.5" fill="#EDF1F6"/><rect x="271" y="176" width="11" height="11" rx="2.5" fill="#EDF1F6"/></g><g class="in" style="animation-delay:0.39s"><rect x="285" y="92" width="11" height="11" rx="2.5" fill="#EDF1F6"/><rect x="285" y="106" width="11" height="11" rx="2.5" fill="#EDF1F6"/><rect x="285" y="120" width="11" height="11" rx="2.5" fill="#EDF1F6"/><rect x="285" y="134" width="11" height="11" rx="2.5" fill="#EDF1F6"/><rect x="285" y="148" width="11" height="11" rx="2.5" fill="#EDF1F6"/><rect x="285" y="162" width="11" height="11" rx="2.5" fill="#EDF1F6"/><rect x="285" y="176" width="11" height="11" rx="2.5" fill="#EDF1F6"/></g><g class="in" style="animation-delay:0.41s"><rect x="299" y="92" width="11" height="11" rx="2.5" fill="#EDF1F6"/><rect x="299" y="106" width="11" height="11" rx="2.5" fill="#EDF1F6"/><rect x="299" y="120" width="11" height="11" rx="2.5" fill="#EDF1F6"/><rect x="299" y="134" width="11" height="11" rx="2.5" fill="#EDF1F6"/><rect x="299" y="148" width="11" height="11" rx="2.5" fill="#EDF1F6"/><rect x="299" y="162" width="11" height="11" rx="2.5" fill="#EDF1F6"/><rect x="299" y="176" width="11" height="11" rx="2.5" fill="#EDF1F6"/></g><g class="in" style="animation-delay:0.42s"><rect x="313" y="92" width="11" height="11" rx="2.5" fill="#EDF1F6"/><rect x="313" y="106" width="11" height="11" rx="2.5" fill="#EDF1F6"/><rect x="313" y="120" width="11" height="11" rx="2.5" fill="#EDF1F6"/><rect x="313" y="134" width="11" height="11" rx="2.5" fill="#EDF1F6"/><rect x="313" y="148" width="11" height="11" rx="2.5" fill="#EDF1F6"/><rect x="313" y="162" width="11" height="11" rx="2.5" fill="#EDF1F6"/><rect x="313" y="176" width="11" height="11" rx="2.5" fill="#EDF1F6"/></g><g class="in" style="animation-delay:0.44s"><rect x="327" y="92" width="11" height="11" rx="2.5" fill="#EDF1F6"/><rect x="327" y="106" width="11" height="11" rx="2.5" fill="#EDF1F6"/><rect x="327" y="120" width="11" height="11" rx="2.5" fill="#EDF1F6"/><rect x="327" y="134" width="11" height="11" rx="2.5" fill="#EDF1F6"/><rect x="327" y="148" width="11" height="11" rx="2.5" fill="#EDF1F6"/><rect x="327" y="162" width="11" height="11" rx="2.5" fill="#EDF1F6"/><rect x="327" y="176" width="11" height="11" rx="2.5" fill="#EDF1F6"/></g><g class="in" style="animation-delay:0.45s"><rect x="341" y="92" width="11" height="11" rx="2.5" fill="#EDF1F6"/><rect x="341" y="106" width="11" height="11" rx="2.5" fill="#EDF1F6"/><rect x="341" y="120" width="11" height="11" rx="2.5" fill="#EDF1F6"/><rect x="341" y="134" width="11" height="11" rx="2.5" fill="#EDF1F6"/><rect x="341" y="148" width="11" height="11" rx="2.5" fill="#EDF1F6"/><rect x="341" y="162" width="11" height="11" rx="2.5" fill="#EDF1F6"/><rect x="341" y="176" width="11" height="11" rx="2.5" fill="#EDF1F6"/></g><g class="in" style="animation-delay:0.47s"><rect x="355" y="92" width="11" height="11" rx="2.5" fill="#EDF1F6"/><rect x="355" y="106" width="11" height="11" rx="2.5" fill="#EDF1F6"/><rect x="355" y="120" width="11" height="11" rx="2.5" fill="#EDF1F6"/><rect x="355" y="134" width="11" height="11" rx="2.5" fill="#EDF1F6"/><rect x="355" y="148" width="11" height="11" rx="2.5" fill="#EDF1F6"/><rect x="355" y="162" width="11" height="11" rx="2.5" fill="#EDF1F6"/><rect x="355" y="176" width="11" height="11" rx="2.5" fill="#EDF1F6"/></g><g class="in" style="animation-delay:0.49s"><rect x="369" y="92" width="11" height="11" rx="2.5" fill="#EDF1F6"/><rect x="369" y="106" width="11" height="11" rx="2.5" fill="#EDF1F6"/><rect x="369" y="120" width="11" height="11" rx="2.5" fill="#EDF1F6"/><rect x="369" y="134" width="11" height="11" rx="2.5" fill="#EDF1F6"/><rect x="369" y="148" width="11" height="11" rx="2.5" fill="#EDF1F6"/><rect x="369" y="162" width="11" height="11" rx="2.5" fill="#EDF1F6"/><rect x="369" y="176" width="11" height="11" rx="2.5" fill="#EDF1F6"/></g><g class="in" style="animation-delay:0.50s"><rect x="383" y="92" width="11" height="11" rx="2.5" fill="#EDF1F6"/><rect x="383" y="106" width="11" height="11" rx="2.5" fill="#EDF1F6"/><rect x="383" y="120" width="11" height="11" rx="2.5" fill="#EDF1F6"/><rect x="383" y="134" width="11" height="11" rx="2.5" fill="#EDF1F6"/><rect x="383" y="148" width="11" height="11" rx="2.5" fill="#EDF1F6"/><rect x="383" y="162" width="11" height="11" rx="2.5" fill="#EDF1F6"/><rect x="383" y="176" width="11" height="11" rx="2.5" fill="#EDF1F6"/></g><g class="in" style="animation-delay:0.52s"><rect x="397" y="92" width="11" height="11" rx="2.5" fill="#EDF1F6"/><rect x="397" y="106" width="11" height="11" rx="2.5" fill="#EDF1F6"/><rect x="397" y="120" width="11" height="11" rx="2.5" fill="#EDF1F6"/><rect x="397" y="134" width="11" height="11" rx="2.5" fill="#EDF1F6"/><rect x="397" y="148" width="11" height="11" rx="2.5" fill="#EDF1F6"/><rect x="397" y="162" width="11" height="11" rx="2.5" fill="#EDF1F6"/><rect x="397" y="176" width="11" height="11" rx="2.5" fill="#EDF1F6"/></g><g class="in" style="animation-delay:0.53s"><rect x="411" y="92" width="11" height="11" rx="2.5" fill="#EDF1F6"/><rect x="411" y="106" width="11" height="11" rx="2.5" fill="#EDF1F6"/><rect x="411" y="120" width="11" height="11" rx="2.5" fill="#EDF1F6"/><rect x="411" y="134" width="11" height="11" rx="2.5" fill="#EDF1F6"/><rect x="411" y="148" width="11" height="11" rx="2.5" fill="#EDF1F6"/><rect x="411" y="162" width="11" height="11" rx="2.5" fill="#EDF1F6"/><rect x="411" y="176" width="11" height="11" rx="2.5" fill="#EDF1F6"/></g><g class="in" style="animation-delay:0.55s"><rect x="425" y="92" width="11" height="11" rx="2.5" fill="#EDF1F6"/><rect x="425" y="106" width="11" height="11" rx="2.5" fill="#EDF1F6"/><rect x="425" y="120" width="11" height="11" rx="2.5" fill="#EDF1F6"/><rect x="425" y="134" width="11" height="11" rx="2.5" fill="#EDF1F6"/><rect x="425" y="148" width="11" height="11" rx="2.5" fill="#EDF1F6"/><rect x="425" y="162" width="11" height="11" rx="2.5" fill="#EDF1F6"/><rect x="425" y="176" width="11" height="11" rx="2.5" fill="#EDF1F6"/></g><g class="in" style="animation-delay:0.57s"><rect x="439" y="92" width="11" height="11" rx="2.5" fill="#EDF1F6"/><rect x="439" y="106" width="11" height="11" rx="2.5" fill="#EDF1F6"/><rect x="439" y="120" width="11" height="11" rx="2.5" fill="#EDF1F6"/><rect x="439" y="134" width="11" height="11" rx="2.5" fill="#EDF1F6"/><rect x="439" y="148" width="11" height="11" rx="2.5" fill="#EDF1F6"/><rect x="439" y="162" width="11" height="11" rx="2.5" fill="#EDF1F6"/><rect x="439" y="176" width="11" height="11" rx="2.5" fill="#EDF1F6"/></g><g class="in" style="animation-delay:0.58s"><rect x="453" y="92" width="11" height="11" rx="2.5" fill="#EDF1F6"/><rect x="453" y="106" width="11" height="11" rx="2.5" fill="#EDF1F6"/><rect x="453" y="120" width="11" height="11" rx="2.5" fill="#EDF1F6"/><rect x="453" y="134" width="11" height="11" rx="2.5" fill="#EDF1F6"/><rect x="453" y="148" width="11" height="11" rx="2.5" fill="#8FC5EC"/><rect x="453" y="162" width="11" height="11" rx="2.5" fill="#EDF1F6"/><rect x="453" y="176" width="11" height="11" rx="2.5" fill="#EDF1F6"/></g><g class="in" style="animation-delay:0.60s"><rect x="467" y="92" width="11" height="11" rx="2.5" fill="#EDF1F6"/><rect x="467" y="106" width="11" height="11" rx="2.5" fill="#EDF1F6"/><rect x="467" y="120" width="11" height="11" rx="2.5" fill="#EDF1F6"/><rect x="467" y="134" width="11" height="11" rx="2.5" fill="#EDF1F6"/><rect x="467" y="148" width="11" height="11" rx="2.5" fill="#EDF1F6"/><rect x="467" y="162" width="11" height="11" rx="2.5" fill="#EDF1F6"/><rect x="467" y="176" width="11" height="11" rx="2.5" fill="#EDF1F6"/></g><g class="in" style="animation-delay:0.61s"><rect x="481" y="92" width="11" height="11" rx="2.5" fill="#EDF1F6"/><rect x="481" y="106" width="11" height="11" rx="2.5" fill="#EDF1F6"/><rect x="481" y="120" width="11" height="11" rx="2.5" fill="#EDF1F6"/><rect x="481" y="134" width="11" height="11" rx="2.5" fill="#EDF1F6"/><rect x="481" y="148" width="11" height="11" rx="2.5" fill="#EDF1F6"/><rect x="481" y="162" width="11" height="11" rx="2.5" fill="#EDF1F6"/><rect x="481" y="176" width="11" height="11" rx="2.5" fill="#EDF1F6"/></g><g class="in" style="animation-delay:0.63s"><rect x="495" y="92" width="11" height="11" rx="2.5" fill="#EDF1F6"/><rect x="495" y="106" width="11" height="11" rx="2.5" fill="#EDF1F6"/><rect x="495" y="120" width="11" height="11" rx="2.5" fill="#EDF1F6"/><rect x="495" y="134" width="11" height="11" rx="2.5" fill="#EDF1F6"/><rect x="495" y="148" width="11" height="11" rx="2.5" fill="#EDF1F6"/><rect x="495" y="162" width="11" height="11" rx="2.5" fill="#EDF1F6"/><rect x="495" y="176" width="11" height="11" rx="2.5" fill="#EDF1F6"/></g><g class="in" style="animation-delay:0.65s"><rect x="509" y="92" width="11" height="11" rx="2.5" fill="#EDF1F6"/><rect x="509" y="106" width="11" height="11" rx="2.5" fill="#EDF1F6"/><rect x="509" y="120" width="11" height="11" rx="2.5" fill="#EDF1F6"/><rect x="509" y="134" width="11" height="11" rx="2.5" fill="#EDF1F6"/><rect x="509" y="148" width="11" height="11" rx="2.5" fill="#EDF1F6"/><rect x="509" y="162" width="11" height="11" rx="2.5" fill="#EDF1F6"/><rect x="509" y="176" width="11" height="11" rx="2.5" fill="#EDF1F6"/></g><g class="in" style="animation-delay:0.66s"><rect x="523" y="92" width="11" height="11" rx="2.5" fill="#EDF1F6"/><rect x="523" y="106" width="11" height="11" rx="2.5" fill="#EDF1F6"/><rect x="523" y="120" width="11" height="11" rx="2.5" fill="#EDF1F6"/><rect x="523" y="134" width="11" height="11" rx="2.5" fill="#EDF1F6"/><rect x="523" y="148" width="11" height="11" rx="2.5" fill="#EDF1F6"/><rect x="523" y="162" width="11" height="11" rx="2.5" fill="#EDF1F6"/><rect x="523" y="176" width="11" height="11" rx="2.5" fill="#EDF1F6"/></g><g class="in" style="animation-delay:0.68s"><rect x="537" y="92" width="11" height="11" rx="2.5" fill="#EDF1F6"/><rect x="537" y="106" width="11" height="11" rx="2.5" fill="#EDF1F6"/><rect x="537" y="120" width="11" height="11" rx="2.5" fill="#EDF1F6"/><rect x="537" y="134" width="11" height="11" rx="2.5" fill="#EDF1F6"/><rect x="537" y="148" width="11" height="11" rx="2.5" fill="#EDF1F6"/><rect x="537" y="162" width="11" height="11" rx="2.5" fill="#EDF1F6"/><rect x="537" y="176" width="11" height="11" rx="2.5" fill="#EDF1F6"/></g><g class="in" style="animation-delay:0.69s"><rect x="551" y="92" width="11" height="11" rx="2.5" fill="#EDF1F6"/><rect x="551" y="106" width="11" height="11" rx="2.5" fill="#EDF1F6"/><rect x="551" y="120" width="11" height="11" rx="2.5" fill="#C9E2F6"/><rect x="551" y="134" width="11" height="11" rx="2.5" fill="#EDF1F6"/><rect x="551" y="148" width="11" height="11" rx="2.5" fill="#EDF1F6"/><rect x="551" y="162" width="11" height="11" rx="2.5" fill="#EDF1F6"/><rect x="551" y="176" width="11" height="11" rx="2.5" fill="#EDF1F6"/></g><g class="in" style="animation-delay:0.71s"><rect x="565" y="92" width="11" height="11" rx="2.5" fill="#EDF1F6"/><rect x="565" y="106" width="11" height="11" rx="2.5" fill="#EDF1F6"/><rect x="565" y="120" width="11" height="11" rx="2.5" fill="#EDF1F6"/><rect x="565" y="134" width="11" height="11" rx="2.5" fill="#EDF1F6"/><rect x="565" y="148" width="11" height="11" rx="2.5" fill="#EDF1F6"/><rect x="565" y="162" width="11" height="11" rx="2.5" fill="#EDF1F6"/><rect x="565" y="176" width="11" height="11" rx="2.5" fill="#EDF1F6"/></g><g class="in" style="animation-delay:0.73s"><rect x="579" y="92" width="11" height="11" rx="2.5" fill="#EDF1F6"/><rect x="579" y="106" width="11" height="11" rx="2.5" fill="#EDF1F6"/><rect x="579" y="120" width="11" height="11" rx="2.5" fill="#EDF1F6"/><rect x="579" y="134" width="11" height="11" rx="2.5" fill="#EDF1F6"/><rect x="579" y="148" width="11" height="11" rx="2.5" fill="#EDF1F6"/><rect x="579" y="162" width="11" height="11" rx="2.5" fill="#EDF1F6"/><rect x="579" y="176" width="11" height="11" rx="2.5" fill="#EDF1F6"/></g><g class="in" style="animation-delay:0.74s"><rect x="593" y="92" width="11" height="11" rx="2.5" fill="#EDF1F6"/><rect x="593" y="106" width="11" height="11" rx="2.5" fill="#EDF1F6"/><rect x="593" y="120" width="11" height="11" rx="2.5" fill="#EDF1F6"/><rect x="593" y="134" width="11" height="11" rx="2.5" fill="#EDF1F6"/><rect x="593" y="148" width="11" height="11" rx="2.5" fill="#EDF1F6"/><rect x="593" y="162" width="11" height="11" rx="2.5" fill="#EDF1F6"/><rect x="593" y="176" width="11" height="11" rx="2.5" fill="#EDF1F6"/></g><g class="in" style="animation-delay:0.76s"><rect x="607" y="92" width="11" height="11" rx="2.5" fill="#EDF1F6"/><rect x="607" y="106" width="11" height="11" rx="2.5" fill="#EDF1F6"/><rect x="607" y="120" width="11" height="11" rx="2.5" fill="#EDF1F6"/><rect x="607" y="134" width="11" height="11" rx="2.5" fill="#EDF1F6"/><rect x="607" y="148" width="11" height="11" rx="2.5" fill="#EDF1F6"/><rect x="607" y="162" width="11" height="11" rx="2.5" fill="#EDF1F6"/><rect x="607" y="176" width="11" height="11" rx="2.5" fill="#EDF1F6"/></g><g class="in" style="animation-delay:0.77s"><rect x="621" y="92" width="11" height="11" rx="2.5" fill="#EDF1F6"/><rect x="621" y="106" width="11" height="11" rx="2.5" fill="#EDF1F6"/><rect x="621" y="120" width="11" height="11" rx="2.5" fill="#EDF1F6"/><rect x="621" y="134" width="11" height="11" rx="2.5" fill="#EDF1F6"/><rect x="621" y="148" width="11" height="11" rx="2.5" fill="#EDF1F6"/><rect x="621" y="162" width="11" height="11" rx="2.5" fill="#EDF1F6"/><rect x="621" y="176" width="11" height="11" rx="2.5" fill="#EDF1F6"/></g><g class="in" style="animation-delay:0.79s"><rect x="635" y="92" width="11" height="11" rx="2.5" fill="#EDF1F6"/><rect x="635" y="106" width="11" height="11" rx="2.5" fill="#EDF1F6"/><rect x="635" y="120" width="11" height="11" rx="2.5" fill="#EDF1F6"/><rect x="635" y="134" width="11" height="11" rx="2.5" fill="#EDF1F6"/><rect x="635" y="148" width="11" height="11" rx="2.5" fill="#4A9FDB"/><rect x="635" y="162" width="11" height="11" rx="2.5" fill="#EDF1F6"/><rect x="635" y="176" width="11" height="11" rx="2.5" fill="#EDF1F6"/></g><g class="in" style="animation-delay:0.81s"><rect x="649" y="92" width="11" height="11" rx="2.5" fill="#EDF1F6"/><rect x="649" y="106" width="11" height="11" rx="2.5" fill="#EDF1F6"/><rect x="649" y="120" width="11" height="11" rx="2.5" fill="#EDF1F6"/><rect x="649" y="134" width="11" height="11" rx="2.5" fill="#EDF1F6"/><rect x="649" y="148" width="11" height="11" rx="2.5" fill="#EDF1F6"/><rect x="649" y="162" width="11" height="11" rx="2.5" fill="#EDF1F6"/><rect x="649" y="176" width="11" height="11" rx="2.5" fill="#EDF1F6"/></g><g class="in" style="animation-delay:0.82s"><rect x="663" y="92" width="11" height="11" rx="2.5" fill="#EDF1F6"/><rect x="663" y="106" width="11" height="11" rx="2.5" fill="#EDF1F6"/><rect x="663" y="120" width="11" height="11" rx="2.5" fill="#EDF1F6"/><rect x="663" y="134" width="11" height="11" rx="2.5" fill="#EDF1F6"/><rect x="663" y="148" width="11" height="11" rx="2.5" fill="#EDF1F6"/><rect x="663" y="162" width="11" height="11" rx="2.5" fill="#EDF1F6"/><rect x="663" y="176" width="11" height="11" rx="2.5" fill="#EDF1F6"/></g><g class="in" style="animation-delay:0.84s"><rect x="677" y="92" width="11" height="11" rx="2.5" fill="#EDF1F6"/><rect x="677" y="106" width="11" height="11" rx="2.5" fill="#EDF1F6"/><rect x="677" y="120" width="11" height="11" rx="2.5" fill="#EDF1F6"/><rect x="677" y="134" width="11" height="11" rx="2.5" fill="#EDF1F6"/><rect x="677" y="148" width="11" height="11" rx="2.5" fill="#EDF1F6"/><rect x="677" y="162" width="11" height="11" rx="2.5" fill="#EDF1F6"/><rect x="677" y="176" width="11" height="11" rx="2.5" fill="#EDF1F6"/></g><g class="in" style="animation-delay:0.85s"><rect x="691" y="92" width="11" height="11" rx="2.5" fill="#EDF1F6"/><rect x="691" y="106" width="11" height="11" rx="2.5" fill="#EDF1F6"/><rect x="691" y="120" width="11" height="11" rx="2.5" fill="#EDF1F6"/><rect x="691" y="134" width="11" height="11" rx="2.5" fill="#EDF1F6"/><rect x="691" y="148" width="11" height="11" rx="2.5" fill="#EDF1F6"/><rect x="691" y="162" width="11" height="11" rx="2.5" fill="#EDF1F6"/><rect x="691" y="176" width="11" height="11" rx="2.5" fill="#EDF1F6"/></g><g class="in" style="animation-delay:0.87s"><rect x="705" y="92" width="11" height="11" rx="2.5" fill="#EDF1F6"/><rect x="705" y="106" width="11" height="11" rx="2.5" fill="#EDF1F6"/><rect x="705" y="120" width="11" height="11" rx="2.5" fill="#EDF1F6"/><rect x="705" y="134" width="11" height="11" rx="2.5" fill="#EDF1F6"/><rect x="705" y="148" width="11" height="11" rx="2.5" fill="#EDF1F6"/><rect x="705" y="162" width="11" height="11" rx="2.5" fill="#EDF1F6"/><rect x="705" y="176" width="11" height="11" rx="2.5" fill="#EDF1F6"/></g><g class="in" style="animation-delay:0.89s"><rect x="719" y="92" width="11" height="11" rx="2.5" fill="#EDF1F6"/><rect x="719" y="106" width="11" height="11" rx="2.5" fill="#EDF1F6"/><rect x="719" y="120" width="11" height="11" rx="2.5" fill="#EDF1F6"/><rect x="719" y="134" width="11" height="11" rx="2.5" fill="#EDF1F6"/><rect x="719" y="148" width="11" height="11" rx="2.5" fill="#EDF1F6"/><rect x="719" y="162" width="11" height="11" rx="2.5" fill="#EDF1F6"/><rect x="719" y="176" width="11" height="11" rx="2.5" fill="#EDF1F6"/></g><g class="in" style="animation-delay:0.90s"><rect x="733" y="92" width="11" height="11" rx="2.5" fill="#EDF1F6"/><rect x="733" y="106" width="11" height="11" rx="2.5" fill="#EDF1F6"/><rect x="733" y="120" width="11" height="11" rx="2.5" fill="#EDF1F6"/><rect x="733" y="134" width="11" height="11" rx="2.5" fill="#EDF1F6"/><rect x="733" y="148" width="11" height="11" rx="2.5" fill="#EDF1F6"/><rect x="733" y="162" width="11" height="11" rx="2.5" fill="#EDF1F6"/><rect x="733" y="176" width="11" height="11" rx="2.5" fill="#EDF1F6"/></g><g class="in" style="animation-delay:0.92s"><rect x="747" y="92" width="11" height="11" rx="2.5" fill="#EDF1F6"/><rect x="747" y="106" width="11" height="11" rx="2.5" fill="#EDF1F6"/><rect x="747" y="120" width="11" height="11" rx="2.5" fill="#EDF1F6"/><rect x="747" y="134" width="11" height="11" rx="2.5" fill="#EDF1F6"/><rect x="747" y="148" width="11" height="11" rx="2.5" fill="#EDF1F6"/><rect x="747" y="162" width="11" height="11" rx="2.5" fill="#EDF1F6"/><rect x="747" y="176" width="11" height="11" rx="2.5" fill="#EDF1F6"/></g><g class="in" style="animation-delay:0.93s"><rect x="761" y="92" width="11" height="11" rx="2.5" fill="#EDF1F6"/><rect x="761" y="106" width="11" height="11" rx="2.5" fill="#EDF1F6"/><rect x="761" y="120" width="11" height="11" rx="2.5" fill="#1D6FB2"/><rect x="761" y="134" width="11" height="11" rx="2.5" fill="#EDF1F6"/><rect x="761" y="148" width="11" height="11" rx="2.5" fill="#1D6FB2"/><rect x="761" y="162" width="11" height="11" rx="2.5" fill="#EDF1F6"/><rect x="761" y="176" width="11" height="11" rx="2.5" fill="#EDF1F6"/></g><g class="in" style="animation-delay:0.95s"><rect x="775" y="92" width="11" height="11" rx="2.5" fill="#EDF1F6"/><rect x="775" y="106" width="11" height="11" rx="2.5" fill="#EDF1F6"/><rect x="775" y="120" width="11" height="11" rx="2.5" fill="#EDF1F6"/><rect x="775" y="134" width="11" height="11" rx="2.5" fill="#EDF1F6"/><rect x="775" y="148" width="11" height="11" rx="2.5" fill="#EDF1F6"/><rect x="775" y="162" width="11" height="11" rx="2.5" fill="#4A9FDB"/><rect x="775" y="176" width="11" height="11" rx="2.5" fill="#EDF1F6"/></g><g class="in" style="animation-delay:0.97s"><rect x="789" y="92" width="11" height="11" rx="2.5" fill="#EDF1F6"/><rect x="789" y="106" width="11" height="11" rx="2.5" fill="#EDF1F6"/><rect x="789" y="120" width="11" height="11" rx="2.5" fill="#EDF1F6"/><rect x="789" y="134" width="11" height="11" rx="2.5" fill="#EDF1F6"/><rect x="789" y="148" width="11" height="11" rx="2.5" fill="#8FC5EC"/><rect x="789" y="162" width="11" height="11" rx="2.5" fill="#EDF1F6"/></g><text x="688.0" y="211.0" font-size="10.5" class="m" text-anchor="end">Less</text><rect x="696" y="202" width="11" height="11" rx="2.5" fill="#EDF1F6"/><rect x="710" y="202" width="11" height="11" rx="2.5" fill="#C9E2F6"/><rect x="724" y="202" width="11" height="11" rx="2.5" fill="#8FC5EC"/><rect x="738" y="202" width="11" height="11" rx="2.5" fill="#4A9FDB"/><rect x="752" y="202" width="11" height="11" rx="2.5" fill="#1D6FB2"/><text x="770.0" y="211.0" font-size="10.5" class="m">More</text><line x1="40" y1="236" x2="800" y2="236" stroke="#E3EAF2"/><g class="in" style="animation-delay:0.90s"><text x="40.0" y="270.0" font-size="24" class="n" font-weight="650" letter-spacing="-0.4">47</text><text x="40.0" y="290.0" font-size="11.5" class="m">Contributions · 12 mo</text></g><g class="in" style="animation-delay:0.97s"><text x="192.0" y="270.0" font-size="24" class="n" font-weight="650" letter-spacing="-0.4">9</text><text x="192.0" y="290.0" font-size="11.5" class="m">Active days · 12 mo</text></g><g class="in" style="animation-delay:1.04s"><text x="344.0" y="270.0" font-size="24" class="n" font-weight="650" letter-spacing="-0.4">1d</text><text x="344.0" y="290.0" font-size="11.5" class="m">Current streak</text></g><g class="in" style="animation-delay:1.11s"><text x="496.0" y="270.0" font-size="24" class="n" font-weight="650" letter-spacing="-0.4">1d</text><text x="496.0" y="290.0" font-size="11.5" class="m">Longest streak</text></g><g class="in" style="animation-delay:1.18s"><text x="648.0" y="270.0" font-size="24" class="n" font-weight="650" letter-spacing="-0.4">16</text><text x="648.0" y="290.0" font-size="11.5" class="m">Best day · Sep 15, 2026</text></g></svg>